<?xml version="1.0" encoding="UTF-8"?><svg id="Layer_1" xmlns="http://www.w3.org/2000/svg" viewBox="0 0 1154.01 283.93"><defs><style>.cls-1{fill:#80297d;}</style></defs><path class="cls-1" d="m283.5,283.44c-28.48,0-52.43-9.79-71.85-29.36-19.43-19.57-29.14-43.55-29.14-71.93s9.71-51.63,29.14-71.34c19.42-19.71,43.37-29.56,71.85-29.56s52.49,9.85,72.05,29.56c19.56,19.71,29.34,43.49,29.34,71.34s-9.72,52.36-29.14,71.93c-19.43,19.58-43.51,29.36-72.25,29.36Zm-40.71-57.15c10.64,11.57,24.21,17.34,40.71,17.34s30.13-5.78,40.91-17.34c10.78-11.56,16.17-26.27,16.17-44.14s-5.39-31.93-16.17-43.75c-10.78-11.83-24.42-17.74-40.91-17.74s-30.08,5.85-40.71,17.54c-10.65,11.7-15.97,26.35-15.97,43.95s5.32,32.58,15.97,44.14Z"/><path class="cls-1" d="m157.49,196.22c-2.38-5.32-5.88-10.02-10.2-13.77-3.42-3.04-7.36-5.44-11.68-7.19-14.31-5.73-34.39-9.82-51.08-12.27-14.61-2.1-24.89-4.39-30.92-6.87-5.99-2.5-8.99-7.27-8.99-14.35,0-13.87,11.49-21.79,34.44-20.84,22.69.97,40.01,8.05,55.22,19.9,2.61,2.41,6.02,3.93,8.62,0l17.56-23.01c2.62-3.44,2.35-6.3-.79-8.66-20.1-18.61-46.58-27.91-79.43-27.91-22.72,0-41.76,5.39-57.16,16.11C7.68,108.1,0,123.7,0,144.13c0,9.18,1.56,17.29,4.68,24.37.01.05.04.1.07.18,2.38,5.32,5.88,10.01,10.19,13.77,3.44,3.03,7.37,5.44,11.68,7.17,14.33,5.73,34.4,9.83,51.09,12.29,14.61,2.09,24.89,4.38,30.92,6.86,5.99,2.51,8.99,7.27,8.99,14.36,0,13.87-11.49,21.79-34.44,20.82-22.69-.95-40.01-8.05-55.22-19.88-2.61-2.41-6.02-3.93-8.62,0L1.78,247.06c-2.62,3.45-2.35,6.31.79,8.67,20.1,18.61,46.58,27.92,79.43,27.92,22.72,0,41.76-5.4,57.16-16.12,15.4-10.73,23.07-26.35,23.07-46.76,0-9.18-1.56-17.29-4.69-24.38-.01-.04-.04-.1-.07-.16Z"/><path class="cls-1" d="m1149.25,196.22c-2.38-5.32-5.88-10.02-10.2-13.77-3.42-3.04-7.36-5.44-11.68-7.19-14.31-5.73-34.39-9.82-51.08-12.27-14.61-2.1-24.89-4.39-30.92-6.87-5.99-2.5-8.99-7.27-8.99-14.35,0-13.87,11.49-21.79,34.44-20.84,22.69.97,40.01,8.05,55.22,19.9,2.61,2.41,6.02,3.93,8.62,0l17.56-23.01c2.62-3.44,2.35-6.3-.79-8.66-20.1-18.61-46.58-27.91-79.43-27.91-22.72,0-41.76,5.39-57.16,16.11-15.4,10.75-23.07,26.35-23.07,46.77,0,9.18,1.56,17.29,4.68,24.37.01.05.04.1.07.18,2.38,5.32,5.88,10.01,10.19,13.77,3.44,3.03,7.37,5.44,11.68,7.17,14.33,5.73,34.4,9.83,51.09,12.29,14.61,2.09,24.89,4.38,30.92,6.86,5.99,2.51,8.99,7.27,8.99,14.36,0,13.87-11.49,21.79-34.44,20.82-22.69-.95-40.01-8.05-55.22-19.88-2.61-2.41-6.02-3.93-8.62,0l-17.56,22.99c-2.62,3.45-2.35,6.31.79,8.67,20.1,18.61,46.58,27.92,79.43,27.92,22.72,0,41.76-5.4,57.16-16.12,15.4-10.73,23.07-26.35,23.07-46.76,0-9.18-1.56-17.29-4.69-24.38-.01-.04-.04-.1-.07-.16Z"/><path class="cls-1" d="m441.28,0h-30.64c-3.57,0-5.35,1.74-5.35,5.22v273.49c0,3.48,1.78,5.22,5.35,5.22h30.64c3.57,0,5.37-1.74,5.37-5.22V5.22C446.65,1.74,444.86,0,441.28,0Z"/><path class="cls-1" d="m742.87,0h-30.64c-3.58,0-5.36,1.74-5.36,5.2v95.63c-17.12-12.73-37.14-19.11-60.01-19.11-28.48,0-52.44,9.86-71.85,29.55-19.43,19.71-29.15,43.5-29.15,71.35s9.72,52.36,29.15,71.93c19.41,19.57,43.37,29.37,71.85,29.37,22.99,0,42.99-6.27,60.01-18.8,4.27-3.14,8.34-6.66,12.22-10.57,19.43-19.57,29.15-43.56,29.15-71.93V5.21c0-3.46-1.8-5.2-5.36-5.2Zm-55.11,226.77c-10.79,11.56-24.41,17.35-40.91,17.35s-30.08-5.79-40.72-17.35c-10.65-11.56-15.97-26.27-15.97-44.14s5.32-32.24,15.97-43.94c10.65-11.7,24.21-17.55,40.72-17.55s30.12,5.91,40.91,17.75c10.77,11.82,16.17,26.39,16.17,43.74s-5.4,32.59-16.17,44.14Z"/><path class="cls-1" d="m511.52,81.97h-30.64c-3.57,0-5.35,1.74-5.35,5.2v191.54c0,3.48,1.78,5.22,5.35,5.22h30.64c3.57,0,5.37-1.74,5.37-5.22V87.17c0-3.46-1.79-5.2-5.37-5.2Z"/><path class="cls-1" d="m944.27,108.06c-18.93-19.72-42.54-29.57-70.86-29.57s-53.77,10.06-73.81,30.16c-20.06,20.12-30.08,44.55-30.08,73.32s10.09,52.87,30.28,72.31c20.19,19.44,45.01,29.17,74.45,29.17,33.91,0,62.66-11.19,86.21-33.57,2.53-2.92,2.53-5.59,0-7.99l-20.61-21.56c-2.53-2.94-5.33-2.94-8.41,0-14.58,15.71-33.23,23.56-55.93,23.56-15.99,0-29.51-4.99-40.59-14.98-11.08-9.99-17.46-22.97-19.13-38.95h150.15c3.92,0,5.88-1.86,5.88-5.6.55-31.15-8.63-56.59-27.55-76.3Zm-126.81,55.13c3.37-13.59,10.04-24.5,19.99-32.77,9.95-8.25,21.93-12.39,35.96-12.39,13.17,0,24.6,4.19,34.28,12.6,9.67,8.39,15.77,19.25,18.3,32.56h-108.52Z"/><path class="cls-1" d="m354.52.01h0c16.76,0,30.36,13.6,30.36,30.36v.27c0,16.76-13.6,30.36-30.36,30.36h-30.36v-30.63C324.16,13.62,337.77.01,354.52.01Z"/><rect class="cls-1" x="465.85" y=".01" width="60.72" height="60.99" rx="30.36" ry="30.36"/></svg>